<svg width="99" height="72" viewBox="0 0 99 72" fill="none" xmlns="http://www.w3.org/2000/svg">
<path fill-rule="evenodd" clip-rule="evenodd" d="M70.1743 40.8865C76.3095 45.0513 80.6087 50.6939 80.6087 58.2173V71.6521H98.5217V58.2173C98.5217 48.4547 82.5343 42.6778 70.1743 40.8865Z" fill="#353750"/>
<path d="M35.8261 35.8261C45.7192 35.8261 53.7392 27.8061 53.7392 17.913C53.7392 8.01994 45.7192 0 35.8261 0C25.933 0 17.9131 8.01994 17.9131 17.913C17.9131 27.8061 25.933 35.8261 35.8261 35.8261Z" fill="#353750"/>
<path fill-rule="evenodd" clip-rule="evenodd" d="M62.6956 35.8261C72.5925 35.8261 80.6086 27.81 80.6086 17.913C80.6086 8.01609 72.5925 0 62.6956 0C60.5908 0 58.6204 0.447825 56.7395 1.07478C60.4565 5.68739 62.6956 11.5539 62.6956 17.913C62.6956 24.2722 60.4565 30.1387 56.7395 34.7513C58.6204 35.3783 60.5908 35.8261 62.6956 35.8261Z" fill="#353750"/>
<path fill-rule="evenodd" clip-rule="evenodd" d="M35.8261 40.3044C23.8691 40.3044 0 46.3053 0 58.2175V71.6523H71.6522V58.2175C71.6522 46.3053 47.783 40.3044 35.8261 40.3044Z" fill="#353750"/>
</svg>
