<svg width="183" height="49" viewBox="0 0 183 49" fill="none" xmlns="http://www.w3.org/2000/svg">
<path d="M163.65 14.8032C163.296 15.7249 162.94 16.6467 162.589 17.5708C161.46 20.519 160.334 23.4671 159.21 26.4176C159.135 26.6102 159.075 26.7522 158.813 26.7497C157.217 26.7377 155.624 26.7449 154.028 26.7425C153.954 26.7425 153.877 26.7233 153.781 26.7112C153.297 22.709 152.815 18.7212 152.337 14.7334C152.312 14.7286 152.288 14.7238 152.262 14.719C152.098 15.323 151.932 15.9247 151.773 16.5288C150.909 19.7922 150.041 23.058 149.189 26.3238C149.104 26.6463 148.974 26.7522 148.635 26.7473C146.387 26.7305 144.14 26.7377 141.889 26.7377C141.762 26.7377 141.632 26.7377 141.444 26.7377C141.56 26.3093 141.658 25.9243 141.767 25.544C143.523 19.4528 145.285 13.3592 147.042 7.268C147.458 5.82643 147.877 4.38485 148.277 2.94086C148.351 2.66651 148.467 2.56543 148.758 2.56784C151.229 2.57987 153.699 2.57987 156.17 2.57024C156.459 2.57024 156.534 2.6617 156.567 2.94327C157.001 6.6519 157.448 10.3581 157.893 14.0668C157.903 14.1414 157.927 14.2136 157.961 14.3652C158.043 14.2256 158.098 14.151 158.132 14.0668C159.544 10.375 160.962 6.68319 162.363 2.98418C162.478 2.68095 162.615 2.56543 162.95 2.56543C165.46 2.57987 167.97 2.57746 170.478 2.56543C170.798 2.56543 170.872 2.67854 170.872 2.97456C170.868 10.7648 170.868 18.5551 170.872 26.3478C170.872 26.6246 170.807 26.7377 170.502 26.7377C168.372 26.7281 166.24 26.7305 164.11 26.7425C163.831 26.7425 163.751 26.6487 163.751 26.3815C163.758 22.6825 163.758 18.9835 163.758 15.2845C163.758 15.1329 163.758 14.9813 163.758 14.8297C163.722 14.82 163.686 14.8104 163.65 14.8008V14.8032Z" fill="#0A7DD6"/>
<path d="M50.1628 14.9427C50.2808 14.134 50.4035 13.3278 50.519 12.5192C50.9715 9.34001 51.4263 6.16325 51.8691 2.98408C51.9101 2.68566 52.0063 2.57254 52.3288 2.57495C54.5646 2.58939 56.7979 2.58217 59.0337 2.58217C59.1613 2.58217 59.2888 2.59661 59.4693 2.60624C59.3971 3.16458 59.3321 3.68922 59.2599 4.21387C58.8749 6.93819 58.4874 9.66491 58.0975 12.3892C57.8232 14.3001 57.5416 16.211 57.2696 18.1218C56.9399 20.4346 56.6198 22.7474 56.2925 25.0602C56.2276 25.5247 56.1409 25.9867 56.0856 26.4536C56.0591 26.663 55.9869 26.7424 55.7679 26.74C53.4407 26.7352 51.1159 26.7448 48.7886 26.7304C48.6539 26.7304 48.4517 26.5836 48.3988 26.456C47.0583 23.1974 45.7346 19.934 44.4086 16.6682C44.139 16.0064 43.8695 15.3446 43.5229 14.6827C43.4146 15.4047 43.3015 16.1267 43.2004 16.8511C42.8467 19.3444 42.4953 21.8377 42.1439 24.331C42.0476 25.0145 41.9514 25.7003 41.8575 26.3838C41.8286 26.5908 41.7974 26.7496 41.5134 26.7472C39.1597 26.7352 36.8084 26.7376 34.4547 26.7328C34.4042 26.7328 34.3536 26.7159 34.2598 26.6967C34.3584 25.9819 34.4499 25.2744 34.551 24.5668C34.8783 22.2685 35.2056 19.9677 35.5329 17.6694C35.8602 15.371 36.1899 13.0703 36.5172 10.772C36.871 8.27868 37.2127 5.783 37.5833 3.29454C37.7109 2.43296 37.5159 2.58698 38.3872 2.58217C40.5435 2.57254 42.6998 2.58458 44.8562 2.57736C45.1522 2.57736 45.3086 2.64474 45.4266 2.9552C46.897 6.80582 48.3891 10.6492 49.874 14.495C49.9342 14.6515 49.9992 14.8031 50.0618 14.9571C50.093 14.9523 50.1267 14.9475 50.158 14.9427H50.1628Z" fill="#0A7DD6"/>
<path d="M9.57488 13.227C9.90218 13.9707 10.2006 14.6445 10.4942 15.3208C12.8888 20.8537 15.2906 26.3841 17.6732 31.9242C18.2604 33.2912 18.7345 34.7015 18.9752 36.1815C19.5841 39.9551 18.4915 43.1367 15.6998 45.7479C14.3472 47.0138 12.7107 47.6564 10.9202 47.9043C8.42932 48.2508 6.05637 47.808 4.06127 46.2437C1.10351 43.9237 -0.294748 40.8456 0.0518079 37.0431C0.239526 34.9854 0.954298 33.0818 1.76293 31.2094C4.28749 25.3613 6.8265 19.518 9.36069 13.6747C9.41604 13.5471 9.48102 13.4244 9.57488 13.2246V13.227Z" fill="#0A7DD6"/>
<path d="M113.267 26.7233C113.14 26.733 113.063 26.7426 112.986 26.7426C110.567 26.7426 108.151 26.733 105.732 26.745C105.383 26.745 105.287 26.6271 105.28 26.2974C105.265 25.5537 105.207 24.8101 105.188 24.064C105.181 23.8233 105.097 23.7511 104.863 23.7511C102.928 23.7584 100.993 23.7584 99.0609 23.7511C98.8299 23.7511 98.7408 23.8546 98.6686 24.0423C98.3485 24.8558 98.0164 25.6644 97.7011 26.4779C97.6217 26.6824 97.5086 26.745 97.2944 26.745C94.7193 26.7378 92.1442 26.7402 89.5691 26.7402C89.4825 26.7402 89.3934 26.7257 89.249 26.7137C89.4199 26.3672 89.5691 26.0543 89.7231 25.7462C92.0431 21.1111 94.3655 16.4783 96.6879 11.8431C98.1777 8.86608 99.6698 5.88906 101.15 2.90724C101.273 2.65935 101.415 2.57272 101.684 2.57512C104.336 2.58475 106.991 2.58716 109.643 2.57512C109.977 2.57512 110.078 2.6762 110.122 3.00832C110.516 6.0479 110.938 9.08749 111.344 12.1271C111.72 14.9332 112.09 17.7418 112.466 20.5503C112.719 22.4516 112.976 24.3528 113.231 26.254C113.25 26.3936 113.253 26.538 113.267 26.7257V26.7233ZM104.49 10.2258C104.452 10.2042 104.411 10.1825 104.372 10.1633C104.276 10.2812 104.144 10.3823 104.091 10.517C103.337 12.3774 102.596 14.2401 101.853 16.1052C101.679 16.5384 101.511 16.9692 101.328 17.4313H104.849C104.729 15.0102 104.611 12.6204 104.49 10.2282V10.2258Z" fill="#0A7DD6"/>
<path d="M76.5661 2.60885C76.2508 4.82055 75.9452 6.9745 75.6323 9.18139H75.2039C73.2954 9.18139 71.387 9.19101 69.4785 9.17416C69.1055 9.17176 68.9202 9.23674 68.8961 9.66271C68.8624 10.2572 68.7445 10.8468 68.6554 11.4966H74.7274C74.6432 12.1271 74.571 12.7023 74.4891 13.2775C74.2918 14.6589 74.08 16.0403 73.8995 17.4241C73.861 17.7274 73.7527 17.8068 73.4591 17.8044C71.7335 17.7923 70.008 17.7972 68.2824 17.7972C68.126 17.7972 67.972 17.7972 67.7602 17.7972C67.6447 18.5625 67.5339 19.3133 67.4136 20.1172H74.0198C74.0198 20.3001 74.0367 20.442 74.0174 20.5768C73.7383 22.5286 73.4495 24.478 73.1799 26.4298C73.1438 26.6873 73.0524 26.7474 72.8117 26.7474C68.1717 26.7426 63.5317 26.7426 58.8917 26.7426C58.7786 26.7426 58.6655 26.7234 58.5187 26.7113C58.6655 25.6741 58.8075 24.6705 58.9495 23.6645C59.3056 21.1472 59.6618 18.6274 60.018 16.1101C60.3068 14.0693 60.6004 12.0308 60.8916 9.99001C61.2261 7.65317 61.5655 5.31632 61.8904 2.97707C61.9289 2.6979 62.0011 2.57275 62.3164 2.57275C66.9178 2.58238 71.5169 2.57997 76.1184 2.58238C76.246 2.58238 76.3735 2.59682 76.5661 2.60885Z" fill="#0A7DD6"/>
<path d="M124.268 17.7972C123.856 20.6948 123.452 23.525 123.057 26.3552C123.021 26.6055 122.976 26.7547 122.663 26.7523C120.259 26.7403 117.854 26.7451 115.448 26.7427C115.332 26.7427 115.219 26.7282 115.053 26.7186C115.128 26.1627 115.193 25.6356 115.267 25.111C115.679 22.2158 116.09 19.323 116.504 16.4278C116.911 13.5856 117.32 10.7433 117.727 7.90349C117.965 6.2381 118.21 4.57271 118.434 2.90491C118.468 2.65221 118.559 2.5752 118.8 2.5752C123.467 2.58242 128.131 2.58242 132.797 2.58723C132.884 2.58723 132.973 2.60408 133.1 2.61611C133.009 3.29478 132.927 3.94939 132.833 4.60159C132.636 5.983 132.417 7.36441 132.244 8.74823C132.198 9.10441 132.073 9.18864 131.731 9.18623C129.81 9.16939 127.888 9.17901 125.967 9.17901C125.825 9.17901 125.683 9.17901 125.505 9.17901C125.392 9.95395 125.281 10.7072 125.163 11.5135H131.252C131.146 12.3004 131.05 13.032 130.946 13.7637C130.778 14.9525 130.581 16.1366 130.451 17.3303C130.405 17.737 130.258 17.8068 129.892 17.8044C128.193 17.7852 126.494 17.7972 124.795 17.7972C124.629 17.7972 124.461 17.7972 124.268 17.7972Z" fill="#0A7DD6"/>
<path d="M89.9687 9.22718C89.8339 10.1537 89.6967 11.0923 89.5619 12.0333C89.237 14.3196 88.9122 16.6083 88.5897 18.8947C88.284 21.0534 87.9808 23.2122 87.6751 25.3709C87.6246 25.7199 87.5524 26.0664 87.5259 26.4178C87.5043 26.6729 87.3936 26.7595 87.1529 26.7451C86.958 26.7331 86.7606 26.7451 86.5657 26.7451C84.5008 26.7451 82.4335 26.7451 80.3686 26.7451C80.1351 26.7451 79.9017 26.7451 79.5744 26.7451C80.4071 20.8801 81.235 15.0633 82.0653 9.22959H77.7189C77.7911 8.6905 77.8585 8.16345 77.9331 7.6388C78.1569 6.07448 78.3927 4.51498 78.5997 2.94826C78.6382 2.66428 78.7345 2.57764 79.0136 2.57764C84.2962 2.58486 89.5788 2.58245 94.859 2.58245C94.9721 2.58245 95.0876 2.6017 95.2609 2.61614C94.9456 4.83747 94.6351 7.02751 94.3223 9.22478H89.9735L89.9687 9.22718Z" fill="#0A7DD6"/>
<path d="M143.305 2.628C143.187 3.47514 143.074 4.31505 142.956 5.15257C142.597 7.67232 142.238 10.1897 141.88 12.7094C141.504 15.3327 141.129 17.9535 140.754 20.5767C140.474 22.5285 140.195 24.4779 139.926 26.4297C139.897 26.6463 139.837 26.7522 139.594 26.7522C137.122 26.7449 134.653 26.7473 132.181 26.7449C132.119 26.7449 132.056 26.7281 131.94 26.7112C132.005 26.2371 132.068 25.7775 132.133 25.3178C132.674 21.4936 133.216 17.6671 133.76 13.8453C134.215 10.6541 134.679 7.46294 135.136 4.27414C135.204 3.80966 135.274 3.34518 135.327 2.87829C135.351 2.66891 135.432 2.58228 135.647 2.58228C138.157 2.58709 140.667 2.58709 143.175 2.58709C143.199 2.58709 143.223 2.60393 143.305 2.63041V2.628Z" fill="#0A7DD6"/>
<path d="M22.2097 0C23.2541 2.40183 24.2649 4.70738 25.2637 7.01776C26.0651 8.87328 26.8785 10.7264 27.6342 12.6012C28.1853 13.9681 28.4838 15.3856 28.3081 16.885C28.0361 19.1978 26.1132 21.8306 23.2686 22.2903C19.1316 22.9617 16.2893 19.7176 16.0655 16.5673C15.9428 14.8153 16.4674 13.2197 17.1437 11.6529C18.7441 7.9395 20.3541 4.23087 21.9618 0.519834C22.0268 0.368216 22.1038 0.219004 22.2097 0Z" fill="#0A7DD6"/>
<path d="M180.389 5.13815C180.663 4.42337 180.952 3.71582 181.202 2.99142C181.308 2.68337 181.452 2.54379 181.787 2.57507C182.162 2.61117 182.699 2.46437 182.875 2.65931C183.077 2.88312 182.973 3.39333 182.976 3.7808C182.985 4.77474 182.968 5.76868 182.985 6.76022C182.99 7.05624 182.894 7.16935 182.603 7.13084C182.514 7.11881 182.417 7.11881 182.328 7.13084C182.044 7.17176 181.975 7.03939 181.977 6.77466C181.989 5.87217 181.982 4.97209 181.982 4.0696C181.982 3.95648 181.982 3.84337 181.914 3.71101C181.873 3.79765 181.825 3.87947 181.794 3.96852C181.44 4.92395 181.086 5.87698 180.742 6.83483C180.675 7.02495 180.6 7.14047 180.362 7.14047C180.124 7.14047 180.016 7.05383 179.938 6.83723C179.606 5.90346 179.26 4.97449 178.918 4.04312C178.875 3.9276 178.827 3.81449 178.687 3.71582V7.07549C178.603 7.10437 178.567 7.12603 178.531 7.12603C177.58 7.10918 177.732 7.27524 177.722 6.32703C177.712 5.20313 177.729 4.07922 177.715 2.95532C177.712 2.66412 177.809 2.57507 178.097 2.57267C179.298 2.55582 179.296 2.5486 179.727 3.67732C179.912 4.16346 180.1 4.64719 180.287 5.13093C180.321 5.13093 180.352 5.13574 180.386 5.13574L180.389 5.13815Z" fill="#0A7DD6"/>
<path d="M175.775 3.4536V7.10447H174.694V3.46563H173.315V2.61368C173.426 2.60406 173.551 2.5824 173.674 2.5824C174.704 2.57999 175.737 2.59202 176.767 2.57277C177.096 2.56555 177.166 2.70754 177.152 2.99153C177.14 3.24663 177.18 3.49692 176.781 3.46082C176.471 3.43194 176.158 3.45601 175.777 3.45601L175.775 3.4536Z" fill="#0A7DD6"/>
</svg>
