<svg width="366" height="57" viewBox="0 0 366 57" fill="none" xmlns="http://www.w3.org/2000/svg">
<path d="M163.65 23.7969C163.296 24.7184 162.94 25.6399 162.589 26.5638C161.46 29.5112 160.334 32.4585 159.21 35.4083C159.135 35.6008 159.075 35.7427 158.813 35.7403C157.217 35.7283 155.624 35.7355 154.028 35.7331C153.954 35.7331 153.877 35.7138 153.781 35.7018C153.297 31.7006 152.815 27.7139 152.337 23.7271C152.312 23.7223 152.288 23.7175 152.262 23.7127C152.098 24.3166 151.932 24.9181 151.773 25.522C150.909 28.7845 150.041 32.0495 149.189 35.3144C149.104 35.6368 148.974 35.7427 148.635 35.7379C146.387 35.7211 144.14 35.7283 141.889 35.7283C141.762 35.7283 141.632 35.7283 141.444 35.7283C141.56 35.3 141.658 34.915 141.767 34.5349C143.523 28.4453 145.285 22.3533 147.042 16.2637C147.458 14.8225 147.877 13.3813 148.277 11.9377C148.351 11.6634 148.467 11.5624 148.758 11.5648C151.229 11.5768 153.699 11.5768 156.17 11.5672C156.459 11.5672 156.534 11.6586 156.567 11.9401C157.001 15.6478 157.448 19.353 157.893 23.0607C157.903 23.1353 157.927 23.2074 157.961 23.359C158.043 23.2195 158.098 23.1449 158.132 23.0607C159.544 19.3699 160.962 15.679 162.363 11.981C162.478 11.6779 162.615 11.5624 162.95 11.5624C165.46 11.5768 167.97 11.5744 170.478 11.5624C170.798 11.5624 170.872 11.6755 170.872 11.9714C170.868 19.7596 170.868 27.5479 170.872 35.3385C170.872 35.6152 170.807 35.7283 170.502 35.7283C168.372 35.7186 166.24 35.721 164.11 35.7331C163.831 35.7331 163.751 35.6392 163.751 35.3722C163.758 31.6742 163.758 27.9761 163.758 24.2781C163.758 24.1265 163.758 23.9749 163.758 23.8234C163.722 23.8137 163.686 23.8041 163.65 23.7945V23.7969Z" fill="#0A7DD6"/>
<path d="M50.1628 23.9362C50.2808 23.1278 50.4035 22.3218 50.519 21.5134C50.9715 18.335 51.4263 15.1591 51.8691 11.9808C51.9101 11.6825 52.0063 11.5694 52.3288 11.5718C54.5646 11.5862 56.7979 11.579 59.0337 11.579C59.1613 11.579 59.2888 11.5934 59.4693 11.6031C59.3971 12.1612 59.3321 12.6858 59.2599 13.2103C58.8749 15.9339 58.4874 18.6599 58.0975 21.3835C57.8232 23.2938 57.5416 25.2042 57.2696 27.1145C56.9399 29.4267 56.6198 31.7389 56.2925 34.0511C56.2276 34.5154 56.1409 34.9774 56.0856 35.4441C56.0591 35.6535 55.9869 35.7329 55.7679 35.7304C53.4407 35.7256 51.1159 35.7353 48.7886 35.7208C48.6539 35.7208 48.4517 35.5741 48.3988 35.4465C47.0583 32.1888 45.7346 28.9263 44.4086 25.6613C44.139 24.9997 43.8695 24.338 43.5229 23.6764C43.4146 24.3982 43.3015 25.12 43.2004 25.8442C42.8467 28.3368 42.4953 30.8294 42.1439 33.322C42.0476 34.0053 41.9514 34.6911 41.8575 35.3744C41.8286 35.5813 41.7974 35.7401 41.5134 35.7377C39.1597 35.7256 36.8084 35.728 34.4547 35.7232C34.4042 35.7232 34.3536 35.7064 34.2598 35.6871C34.3584 34.9726 34.4499 34.2652 34.551 33.5578C34.8783 31.2601 35.2056 28.96 35.5329 26.6622C35.8602 24.3645 36.1899 22.0644 36.5172 19.7666C36.871 17.274 37.2127 14.779 37.5833 12.2912C37.7109 11.4298 37.5159 11.5838 38.3872 11.579C40.5435 11.5694 42.6998 11.5814 44.8562 11.5742C45.1522 11.5742 45.3086 11.6416 45.4266 11.9519C46.897 15.8015 48.3891 19.6439 49.874 23.4887C49.9342 23.6451 49.9992 23.7967 50.0618 23.9507C50.093 23.9458 50.1267 23.941 50.158 23.9362H50.1628Z" fill="#0A7DD6"/>
<path d="M9.57488 22.2212C9.90218 22.9646 10.2006 23.6383 10.4942 24.3144C12.8888 29.8458 15.2906 35.3748 17.6732 40.9134C18.2604 42.28 18.7345 43.6899 18.9752 45.1696C19.5841 48.9422 18.4915 52.1229 15.6998 54.7335C14.3472 55.999 12.7107 56.6414 10.9202 56.8892C8.42932 57.2357 6.05637 56.793 4.06127 55.2291C1.10351 52.9097 -0.294748 49.8324 0.0518079 46.031C0.239526 43.9738 0.954298 42.0707 1.76293 40.1988C4.28749 34.3522 6.8265 28.5104 9.36069 22.6687C9.41604 22.5412 9.48102 22.4184 9.57488 22.2188V22.2212Z" fill="#0A7DD6"/>
<path d="M113.267 35.714C113.14 35.7236 113.063 35.7333 112.986 35.7333C110.567 35.7333 108.151 35.7236 105.732 35.7357C105.383 35.7357 105.287 35.6178 105.28 35.2882C105.265 34.5447 105.207 33.8012 105.188 33.0554C105.181 32.8148 105.097 32.7426 104.863 32.7426C102.928 32.7498 100.993 32.7498 99.0609 32.7426C98.8299 32.7426 98.7408 32.8461 98.6686 33.0337C98.3485 33.847 98.0164 34.6554 97.7011 35.4686C97.6217 35.6731 97.5086 35.7357 97.2944 35.7357C94.7193 35.7285 92.1442 35.7309 89.5691 35.7309C89.4825 35.7309 89.3934 35.7164 89.249 35.7044C89.4199 35.3579 89.5691 35.0451 89.7231 34.7372C92.0431 30.1032 94.3655 25.4717 96.6879 20.8377C98.1777 17.8615 99.6698 14.8853 101.15 11.9042C101.273 11.6564 101.415 11.5698 101.684 11.5722C104.336 11.5818 106.991 11.5842 109.643 11.5722C109.977 11.5722 110.078 11.6732 110.122 12.0053C110.516 15.0441 110.938 18.0828 111.344 21.1216C111.72 23.927 112.09 26.7348 112.466 29.5426C112.719 31.4434 112.976 33.3441 113.231 35.2448C113.25 35.3844 113.253 35.5288 113.267 35.7164V35.714ZM104.49 19.2209C104.452 19.1992 104.411 19.1776 104.372 19.1583C104.276 19.2762 104.144 19.3773 104.091 19.512C103.337 21.3718 102.596 23.2341 101.853 25.0987C101.679 25.5318 101.511 25.9625 101.328 26.4244H104.849C104.729 24.004 104.611 21.6148 104.49 19.2233V19.2209Z" fill="#0A7DD6"/>
<path d="M76.5661 11.6058C76.2508 13.8169 75.9452 15.9703 75.6323 18.1766H75.2039C73.2954 18.1766 71.387 18.1862 69.4785 18.1694C69.1055 18.167 68.9202 18.2319 68.8961 18.6578C68.8624 19.2521 68.7445 19.8415 68.6554 20.4912H74.7274C74.6432 21.1215 74.571 21.6966 74.4891 22.2716C74.2918 23.6526 74.08 25.0337 73.8995 26.4171C73.861 26.7203 73.7527 26.7997 73.4591 26.7973C71.7335 26.7853 70.008 26.7901 68.2824 26.7901C68.126 26.7901 67.972 26.7901 67.7602 26.7901C67.6447 27.5552 67.5339 28.3059 67.4136 29.1095H74.0198C74.0198 29.2923 74.0367 29.4343 74.0174 29.569C73.7383 31.5203 73.4495 33.4691 73.1799 35.4204C73.1438 35.6778 73.0524 35.738 72.8117 35.738C68.1717 35.7332 63.5317 35.7332 58.8917 35.7332C58.7786 35.7332 58.6655 35.7139 58.5187 35.7019C58.6655 34.6649 58.8075 33.6616 58.9495 32.6559C59.3056 30.1392 59.6618 27.6201 60.018 25.1035C60.3068 23.0632 60.6004 21.0253 60.8916 18.985C61.2261 16.6488 61.5655 14.3125 61.8904 11.9739C61.9289 11.6948 62.0011 11.5697 62.3164 11.5697C66.9178 11.5793 71.5169 11.5769 76.1184 11.5793C76.246 11.5793 76.3735 11.5938 76.5661 11.6058Z" fill="#0A7DD6"/>
<path d="M124.268 26.7901C123.856 29.6869 123.452 32.5164 123.057 35.3459C123.021 35.5961 122.976 35.7452 122.663 35.7428C120.259 35.7308 117.854 35.7356 115.448 35.7332C115.332 35.7332 115.219 35.7188 115.053 35.7092C115.128 35.1534 115.193 34.6265 115.267 34.1019C115.679 31.2075 116.09 28.3155 116.504 25.4211C116.911 22.5796 117.32 19.7381 117.727 16.899C117.965 15.2341 118.21 13.5691 118.434 11.9018C118.468 11.6491 118.559 11.5721 118.8 11.5721C123.467 11.5794 128.131 11.5794 132.797 11.5842C132.884 11.5842 132.973 11.601 133.1 11.613C133.009 12.2915 132.927 12.946 132.833 13.598C132.636 14.979 132.417 16.3601 132.244 17.7435C132.198 18.0996 132.073 18.1838 131.731 18.1814C129.81 18.1646 127.888 18.1742 125.967 18.1742C125.825 18.1742 125.683 18.1742 125.505 18.1742C125.392 18.9489 125.281 19.702 125.163 20.508H131.252C131.146 21.2948 131.05 22.0262 130.946 22.7576C130.778 23.9462 130.581 25.13 130.451 26.3233C130.405 26.73 130.258 26.7997 129.892 26.7973C128.193 26.7781 126.494 26.7901 124.795 26.7901C124.629 26.7901 124.461 26.7901 124.268 26.7901Z" fill="#0A7DD6"/>
<path d="M89.9687 18.2224C89.8339 19.1487 89.6967 20.087 89.5619 21.0278C89.237 23.3135 88.9122 25.6016 88.5897 27.8873C88.284 30.0455 87.9808 32.2036 87.6751 34.3618C87.6246 34.7107 87.5524 35.0572 87.5259 35.4084C87.5043 35.6635 87.3936 35.7501 87.1529 35.7357C86.958 35.7236 86.7606 35.7357 86.5657 35.7357C84.5008 35.7357 82.4335 35.7357 80.3686 35.7357C80.1351 35.7357 79.9017 35.7357 79.5744 35.7357C80.4071 29.8722 81.235 24.0569 82.0653 18.2248H77.7189C77.7911 17.6858 77.8585 17.1589 77.9331 16.6344C78.1569 15.0705 78.3927 13.5114 78.5997 11.9451C78.6382 11.6612 78.7345 11.5746 79.0136 11.5746C84.2962 11.5818 89.5788 11.5794 94.859 11.5794C94.9721 11.5794 95.0876 11.5986 95.2609 11.6131C94.9456 13.8338 94.6351 16.0233 94.3223 18.22H89.9735L89.9687 18.2224Z" fill="#0A7DD6"/>
<path d="M143.305 11.6252C143.187 12.4721 143.074 13.3118 142.956 14.1491C142.597 16.6682 142.238 19.1848 141.88 21.7039C141.504 24.3265 141.129 26.9466 140.754 29.5691C140.474 31.5204 140.195 33.4693 139.926 35.4205C139.897 35.6371 139.837 35.743 139.594 35.743C137.122 35.7357 134.653 35.7381 132.181 35.7357C132.119 35.7357 132.056 35.7189 131.94 35.7021C132.005 35.2281 132.068 34.7685 132.133 34.309C132.674 30.4858 133.216 26.6603 133.76 22.8396C134.215 19.6492 134.679 16.4588 135.136 13.2709C135.204 12.8065 135.274 12.3422 135.327 11.8754C135.351 11.6661 135.432 11.5795 135.647 11.5795C138.157 11.5843 140.667 11.5843 143.175 11.5843C143.199 11.5843 143.223 11.6011 143.305 11.6276V11.6252Z" fill="#0A7DD6"/>
<path d="M22.2097 8.99756C23.2541 11.3987 24.2649 13.7037 25.2637 16.0135C26.0651 17.8685 26.8785 19.7211 27.6342 21.5954C28.1853 22.962 28.4838 24.3791 28.3081 25.8781C28.0361 28.1902 26.1132 30.8224 23.2686 31.2819C19.1316 31.9532 16.2893 28.7099 16.0655 25.5605C15.9428 23.8089 16.4674 22.2137 17.1437 20.6474C18.7441 16.935 20.3541 13.2273 21.9618 9.51725C22.0268 9.36568 22.1038 9.2165 22.2097 8.99756Z" fill="#0A7DD6"/>
<path d="M180.388 14.1344C180.663 13.4198 180.952 12.7125 181.202 11.9883C181.308 11.6803 181.452 11.5407 181.787 11.572C182.162 11.6081 182.699 11.4613 182.874 11.6562C183.077 11.88 182.973 12.3901 182.976 12.7774C182.985 13.7711 182.968 14.7648 182.985 15.7561C182.99 16.052 182.894 16.1651 182.603 16.1266C182.513 16.1145 182.417 16.1145 182.328 16.1266C182.044 16.1675 181.974 16.0352 181.977 15.7705C181.989 14.8682 181.982 13.9684 181.982 13.0661C181.982 12.9531 181.982 12.84 181.914 12.7077C181.873 12.7943 181.825 12.8761 181.794 12.9651C181.44 13.9203 181.086 14.8731 180.742 15.8306C180.675 16.0207 180.6 16.1362 180.362 16.1362C180.124 16.1362 180.015 16.0496 179.938 15.833C179.606 14.8995 179.26 13.9708 178.918 13.0397C178.875 12.9242 178.827 12.8111 178.687 12.7125V16.0712C178.603 16.1001 178.567 16.1218 178.53 16.1218C177.58 16.1049 177.731 16.2709 177.722 15.323C177.712 14.1994 177.729 13.0758 177.715 11.9522C177.712 11.661 177.808 11.572 178.097 11.5696C179.298 11.5528 179.296 11.5456 179.727 12.674C179.912 13.16 180.1 13.6436 180.287 14.1272C180.321 14.1272 180.352 14.132 180.386 14.132L180.388 14.1344Z" fill="#0A7DD6"/>
<path d="M175.775 12.4501V16.1H174.694V12.4621H173.315V11.6104C173.426 11.6008 173.551 11.5791 173.674 11.5791C174.704 11.5767 175.737 11.5887 176.767 11.5695C177.096 11.5623 177.166 11.7042 177.152 11.9881C177.14 12.2432 177.18 12.4934 176.781 12.4573C176.471 12.4284 176.158 12.4525 175.777 12.4525L175.775 12.4501Z" fill="#0A7DD6"/>
<path d="M265.21 26.1669C265.21 22.1235 262.974 18.2639 260.584 18.2639C258.868 18.2639 257.858 19.9476 257.858 22.7966C257.858 26.8096 260.093 30.6373 262.544 30.6373C264.197 30.6373 265.208 28.9537 265.208 26.1654M254 24.4514C254 19.9186 256.971 16.9769 261.597 16.9769C266.222 16.9769 269.04 19.9476 269.04 24.4818C269.04 29.0159 266.038 31.9258 261.443 31.9258C256.848 31.9258 254 29.0145 254 24.4514Z" fill="#353750"/>
<path d="M298.149 31.4959L299.067 29.2288V21.2448L298.149 19.0704V18.8865L302.621 17.6545L302.804 17.7472V29.2288L303.723 31.4959V31.6798H298.149V31.4959Z" fill="#353750"/>
<path d="M280.707 17.4679L279.575 20.44H279.391C278.93 20.1027 278.38 19.9493 277.798 19.9493C276.215 19.9493 274.98 20.7803 274.98 23.3702V29.229L276.235 31.4961V31.6799H270.324V31.4961L271.244 29.229V21.2551L270.324 19.0807V18.8968L274.796 17.6402L274.98 17.7314V20.1013C275.991 18.1411 277.553 16.9149 279.053 16.9149C279.728 16.9149 280.371 17.1292 280.707 17.4665" fill="#353750"/>
<path d="M303.087 13.4912C303.087 14.7869 302.035 15.8379 300.739 15.8379C299.443 15.8379 298.392 14.7869 298.392 13.4912C298.392 12.1956 299.442 11.1445 300.739 11.1445C302.037 11.1445 303.087 12.1956 303.087 13.4912Z" fill="#353750"/>
<path d="M289.481 30.7636C286.013 30.7636 285.933 26.6551 285.933 25.384C285.933 24.1129 285.943 20.8064 285.943 20.8064C285.943 20.8064 286.925 19.6135 288.65 19.6106C291.78 19.6077 292.804 22.9837 292.972 24.8672C293.137 26.7159 292.949 30.7622 289.479 30.7622M290.751 16.8527C288.699 16.8527 286.952 17.9559 285.942 19.793V11.2328L285.758 11.1416L281.286 12.3881V12.5719L282.206 14.7464V31.8306L282.359 31.9218L285.177 30.6348C286.305 31.528 287.811 31.9218 289.281 31.9218C293.661 31.9218 296.785 28.7368 296.785 24.1723C296.785 19.9146 294.274 16.8513 290.751 16.8513" fill="#353750"/>
<path d="M311.303 29.3203C308.316 29.591 307.766 27.0373 308.675 25.7633C309.102 25.1639 310.162 24.3532 313.908 23.5947C313.908 23.5947 313.913 24.6645 313.908 25.0684C313.903 25.549 314.144 29.0626 311.303 29.3203ZM313.746 21.8357C313.85 22.2107 313.829 22.0254 313.874 22.4915C307.879 23.9406 305.087 25.2016 305.087 28.5718C305.087 30.655 306.832 32.0636 309.099 32.0636C311.213 32.0636 313.051 30.8389 313.939 29.245C314.123 31.1444 314.98 32.0014 316.328 32.0014C317.828 32.0014 319.146 30.9287 319.544 29.245L319.36 29.1219C319.176 29.245 318.962 29.3058 318.687 29.3058C317.921 29.3058 317.646 28.663 317.646 27.4383V22.6594C317.646 19.2588 315.717 16.8397 312.103 16.8397C309.285 16.8397 306.804 18.7087 305.947 21.2812L306.351 21.5273C307.424 20.4242 308.765 19.5672 310.481 19.5672C311.949 19.5672 313.296 20.2143 313.749 21.8372" fill="#353750"/>
<path d="M342.783 42.0077C339.205 42.0077 336.346 40.7713 334.32 39.4583C328.576 35.7363 325.302 28.8076 325.138 24.1793C324.873 16.6904 327.91 12.1954 334.981 9.60543C340.808 7.47154 342.799 4.83674 344.251 2.91276C345.481 1.28555 346.451 0.00144769 348.947 0H348.957C353.265 0.0825184 356.815 1.52008 358.951 4.04919C360.852 6.30035 361.577 9.34051 361.05 12.841C360.616 15.7277 359.88 17.4982 359.288 18.9199C358.619 20.5283 358.092 21.7979 358.247 24.0273C358.292 24.6831 358.458 25.4417 358.633 26.2438C359.537 30.3813 360.775 36.049 349.5 40.6208C347.046 41.6153 344.798 42.0091 342.781 42.0091L342.783 42.0077ZM348.944 1.04379C346.972 1.04668 346.262 1.98623 345.087 3.5425C343.555 5.57072 341.456 8.34739 335.341 10.587C328.671 13.0278 325.933 17.0828 326.183 24.1417C326.338 28.5065 329.442 35.0515 334.889 38.581C339.135 41.333 344.051 41.7022 349.109 39.6508C359.567 35.4105 358.484 30.4507 357.614 26.4653C357.43 25.6241 357.256 24.8308 357.206 24.0983C357.033 21.6227 357.631 20.1837 358.325 18.5174C358.923 17.077 359.602 15.444 360.019 12.6847C360.5 9.48962 359.856 6.73611 358.154 4.72092C356.217 2.42633 352.947 1.12051 348.946 1.04379H348.944Z" fill="#353750"/>
<path d="M348.27 48.1124C344.712 48.1124 341.792 45.3734 335.97 39.9054L334.671 38.6865C329.837 34.161 327.246 24.1545 329.012 16.8365C329.946 12.9697 331.967 10.4869 334.859 9.6588C339.882 8.2198 342.259 6.70406 343.995 5.59658C345.605 4.57017 346.768 3.8275 348.936 3.7667C353.567 3.63641 355.258 6.08735 356.736 8.2502C357.636 9.56615 358.484 10.8097 359.929 11.4988C363.319 13.1173 365.312 15.0167 365.853 17.1463C366.233 18.6388 365.874 20.1546 364.786 21.6515C364.552 21.9743 364.23 22.3058 363.858 22.6895C362.422 24.1661 360.018 26.6359 358.836 32.7524C357.261 40.9058 355.555 47.2076 349.246 48.0458C348.914 48.0907 348.59 48.1124 348.271 48.1124H348.27ZM349.298 4.80614C349.189 4.80614 349.079 4.80614 348.966 4.81048C347.088 4.86405 346.081 5.50538 344.558 6.47678C342.768 7.61756 340.318 9.18251 335.149 10.6621C331.979 11.5698 330.615 14.6533 330.03 17.0797C328.369 23.9577 330.872 33.6963 335.386 37.9221L336.688 39.1425C342.784 44.8652 345.566 47.474 349.109 47.0093C354.738 46.2608 356.267 40.5468 357.811 32.5526C359.052 26.1306 361.592 23.519 363.109 21.9598C363.454 21.6052 363.752 21.2997 363.942 21.0377C364.838 19.8028 365.141 18.5795 364.841 17.404C364.387 15.6146 362.532 13.8976 359.479 12.4413C357.78 11.6306 356.812 10.2104 355.873 8.83796C354.459 6.76487 353.119 4.80469 349.298 4.80469V4.80614Z" fill="#353750"/>
<path d="M341.996 41.7934C337.445 41.7934 334.93 38.9979 334.645 38.6635C332.035 36.1778 332.179 31.7407 332.329 27.0443C332.357 26.1786 332.386 25.2999 332.397 24.4211C332.503 16.4212 333.601 10.8736 335.852 6.96341C338.552 2.28013 342.89 0.00146484 349.115 0.00146484C349.167 0.00146484 349.221 0.00146484 349.273 0.00146484H349.298C360.076 0.558826 361.24 7.77267 361.24 10.849C361.24 13.9254 362.091 14.8924 363.076 15.9811C363.972 16.9713 364.989 18.0933 365.468 20.8077C366.702 27.8131 359.333 29.6777 359.259 29.6965C355.519 30.6795 354.333 31.6523 353.667 32.4746C352.906 33.4127 352.301 34.4449 351.716 35.4438C350.117 38.1713 348.466 40.9914 343.656 41.6762C343.077 41.7587 342.524 41.7963 341.998 41.7963L341.996 41.7934ZM349.112 1.0467C338.346 1.0467 333.658 8.05208 333.443 24.4356C333.431 25.3216 333.402 26.2061 333.375 27.0791C333.231 31.5467 333.095 35.7681 335.386 37.9266L335.431 37.9759C335.545 38.1148 338.315 41.3779 343.507 40.6411C347.818 40.0258 349.205 37.6574 350.812 34.9154C351.418 33.8832 352.043 32.8163 352.853 31.8174C353.625 30.8634 354.96 29.7457 359.001 28.6831C359.276 28.6151 365.499 27.0226 364.437 20.9901C364.012 18.5725 363.141 17.6112 362.3 16.6832C361.265 15.5395 360.193 14.3582 360.193 10.8505C360.193 2.52479 352.553 1.22187 349.254 1.04815C349.206 1.04815 349.159 1.04815 349.111 1.04815L349.112 1.0467Z" fill="#353750"/>
</svg>
