<svg width="48" height="32" viewBox="0 0 48 32" fill="none" xmlns="http://www.w3.org/2000/svg">
<rect width="48" height="32" rx="5" fill="#F4F4F4"/>
<path opacity="0.5" d="M48 4.70588C48 3.4578 47.493 2.26085 46.5906 1.37832C45.6882 0.495797 44.4642 0 43.188 0H4.81203C3.5358 0 2.31184 0.495797 1.40941 1.37832C0.50698 2.26085 0 3.4578 0 4.70588V27.2941C0 28.5422 0.50698 29.7392 1.40941 30.6217C2.31184 31.5042 3.5358 32 4.81203 32H43.188C44.4642 32 45.6882 31.5042 46.5906 30.6217C47.493 29.7392 48 28.5422 48 27.2941V4.70588ZM45.594 27.2941C45.594 27.9182 45.3405 28.5166 44.8893 28.9579C44.4381 29.3992 43.8261 29.6471 43.188 29.6471H4.81203C4.17392 29.6471 3.56194 29.3992 3.11072 28.9579C2.65951 28.5166 2.40602 27.9182 2.40602 27.2941V4.70588C2.40602 4.08184 2.65951 3.48336 3.11072 3.0421C3.56194 2.60084 4.17392 2.35294 4.81203 2.35294H43.188C43.8261 2.35294 44.4381 2.60084 44.8893 3.0421C45.3405 3.48336 45.594 4.08184 45.594 4.70588V27.2941Z" fill="#353750"/>
<path opacity="0.5" d="M14.797 5.64717C14.797 5.33515 14.6703 5.03591 14.4447 4.81528C14.2191 4.59465 13.9131 4.4707 13.594 4.4707H5.65418C5.33512 4.4707 5.02913 4.59465 4.80352 4.81528C4.57792 5.03591 4.45117 5.33515 4.45117 5.64717V13.4119C4.45117 13.7239 4.57792 14.0231 4.80352 14.2438C5.02913 14.4644 5.33512 14.5883 5.65418 14.5883H13.594C13.9131 14.5883 14.2191 14.4644 14.4447 14.2438C14.6703 14.0231 14.797 13.7239 14.797 13.4119V5.64717ZM6.85719 6.82364H12.391V12.1178H6.85719V6.82364Z" fill="#353750"/>
<path opacity="0.5" d="M41.7316 17.8823H5.64978C5.33073 17.8823 5.02474 18.0063 4.79913 18.2269C4.57352 18.4475 4.44678 18.7468 4.44678 19.0588C4.44678 19.3708 4.57352 19.6701 4.79913 19.8907C5.02474 20.1113 5.33073 20.2353 5.64978 20.2353H41.7316C42.0507 20.2353 42.3566 20.1113 42.5822 19.8907C42.8079 19.6701 42.9346 19.3708 42.9346 19.0588C42.9346 18.7468 42.8079 18.4475 42.5822 18.2269C42.3566 18.0063 42.0507 17.8823 41.7316 17.8823Z" fill="#353750"/>
<path opacity="0.5" d="M41.7316 22.7058H5.64978C5.33073 22.7058 5.02474 22.8298 4.79913 23.0504C4.57352 23.271 4.44678 23.5703 4.44678 23.8823C4.44678 24.1943 4.57352 24.4935 4.79913 24.7142C5.02474 24.9348 5.33073 25.0588 5.64978 25.0588H41.7316C42.0507 25.0588 42.3566 24.9348 42.5822 24.7142C42.8079 24.4935 42.9346 24.1943 42.9346 23.8823C42.9346 23.5703 42.8079 23.271 42.5822 23.0504C42.3566 22.8298 42.0507 22.7058 41.7316 22.7058Z" fill="#353750"/>
</svg>
